<svg xmlns="http://www.w3.org/2000/svg" xmlns:xlink="http://www.w3.org/1999/xlink" width="122" zoomAndPan="magnify" viewBox="0 0 91.5 77.999999" height="104" preserveAspectRatio="xMidYMid meet" version="1.0"><defs><g/><clipPath id="61fb578a3c"><path d="M 0.046875 46.535156 L 90.851562 46.535156 L 90.851562 55.488281 L 0.046875 55.488281 Z M 0.046875 46.535156 " clip-rule="nonzero"/></clipPath><clipPath id="4c99c982b2"><path d="M 4.6875 46.535156 L 85.976562 46.535156 C 87.207031 46.535156 88.386719 47.023438 89.257812 47.894531 C 90.128906 48.765625 90.617188 49.945312 90.617188 51.175781 C 90.617188 52.40625 90.128906 53.585938 89.257812 54.453125 C 88.386719 55.324219 87.207031 55.8125 85.976562 55.8125 L 4.6875 55.8125 C 3.457031 55.8125 2.277344 55.324219 1.40625 54.453125 C 0.535156 53.585938 0.046875 52.40625 0.046875 51.175781 C 0.046875 49.945312 0.535156 48.765625 1.40625 47.894531 C 2.277344 47.023438 3.457031 46.535156 4.6875 46.535156 Z M 4.6875 46.535156 " clip-rule="nonzero"/></clipPath><clipPath id="ddc8948987"><path d="M 41.75 0.210938 L 48.925781 0.210938 L 48.925781 7.386719 L 41.75 7.386719 Z M 41.75 0.210938 " clip-rule="nonzero"/></clipPath><clipPath id="fb979c7424"><path d="M 45.339844 0.210938 C 43.355469 0.210938 41.75 1.816406 41.75 3.796875 C 41.75 5.78125 43.355469 7.386719 45.339844 7.386719 C 47.320312 7.386719 48.925781 5.78125 48.925781 3.796875 C 48.925781 1.816406 47.320312 0.210938 45.339844 0.210938 Z M 45.339844 0.210938 " clip-rule="nonzero"/></clipPath><clipPath id="a4cf26018c"><path d="M 0.75 0.210938 L 7.925781 0.210938 L 7.925781 7.386719 L 0.75 7.386719 Z M 0.75 0.210938 " clip-rule="nonzero"/></clipPath><clipPath id="38f9a086ed"><path d="M 4.339844 0.210938 C 2.355469 0.210938 0.75 1.816406 0.75 3.796875 C 0.75 5.78125 2.355469 7.386719 4.339844 7.386719 C 6.320312 7.386719 7.925781 5.78125 7.925781 3.796875 C 7.925781 1.816406 6.320312 0.210938 4.339844 0.210938 Z M 4.339844 0.210938 " clip-rule="nonzero"/></clipPath><clipPath id="bc0d7fc4ee"><rect x="0" width="8" y="0" height="8"/></clipPath><clipPath id="fc1ff32437"><path d="M 35.714844 24.6875 L 42 24.6875 L 42 43.570312 L 35.714844 43.570312 Z M 35.714844 24.6875 " clip-rule="nonzero"/></clipPath><clipPath id="0ea4309096"><path d="M 38.855469 24.6875 C 40.589844 24.6875 42 26.097656 42 27.832031 L 42 40.425781 C 42 42.164062 40.589844 43.570312 38.855469 43.570312 C 37.121094 43.570312 35.714844 42.164062 35.714844 40.425781 L 35.714844 27.832031 C 35.714844 26.097656 37.121094 24.6875 38.855469 24.6875 Z M 38.855469 24.6875 " clip-rule="nonzero"/></clipPath><clipPath id="0573aa714b"><path d="M 0.714844 0.6875 L 7 0.6875 L 7 19.570312 L 0.714844 19.570312 Z M 0.714844 0.6875 " clip-rule="nonzero"/></clipPath><clipPath id="ed4ef91bce"><path d="M 3.855469 0.6875 C 5.589844 0.6875 7 2.097656 7 3.832031 L 7 16.425781 C 7 18.164062 5.589844 19.570312 3.855469 19.570312 C 2.121094 19.570312 0.714844 18.164062 0.714844 16.425781 L 0.714844 3.832031 C 0.714844 2.097656 2.121094 0.6875 3.855469 0.6875 Z M 3.855469 0.6875 " clip-rule="nonzero"/></clipPath><clipPath id="7ccbeee34f"><rect x="0" width="7" y="0" height="20"/></clipPath><clipPath id="3d2df14d2f"><path d="M 35.714844 24.6875 L 41.679688 24.6875 L 41.679688 43.335938 L 35.714844 43.335938 Z M 35.714844 24.6875 " clip-rule="nonzero"/></clipPath><clipPath id="2ceb627228"><path d="M 38.855469 24.6875 C 40.589844 24.6875 41.996094 26.09375 41.996094 27.828125 L 41.996094 40.417969 C 41.996094 42.152344 40.589844 43.558594 38.855469 43.558594 C 37.121094 43.558594 35.714844 42.152344 35.714844 40.417969 L 35.714844 27.828125 C 35.714844 26.09375 37.121094 24.6875 38.855469 24.6875 Z M 38.855469 24.6875 " clip-rule="nonzero"/></clipPath><clipPath id="550456f1d2"><path d="M 46.441406 22.378906 L 52.390625 22.378906 L 52.390625 43.574219 L 46.441406 43.574219 Z M 46.441406 22.378906 " clip-rule="nonzero"/></clipPath><clipPath id="26a685b7fb"><path d="M 49.417969 22.378906 C 51.058594 22.378906 52.390625 23.710938 52.390625 25.351562 L 52.390625 40.59375 C 52.390625 42.238281 51.058594 43.570312 49.417969 43.570312 C 47.773438 43.570312 46.441406 42.238281 46.441406 40.59375 L 46.441406 25.351562 C 46.441406 23.710938 47.773438 22.378906 49.417969 22.378906 Z M 49.417969 22.378906 " clip-rule="nonzero"/></clipPath><clipPath id="d82bb48fe5"><path d="M 0.441406 0.378906 L 6.390625 0.378906 L 6.390625 21.574219 L 0.441406 21.574219 Z M 0.441406 0.378906 " clip-rule="nonzero"/></clipPath><clipPath id="62aff93d47"><path d="M 3.417969 0.378906 C 5.058594 0.378906 6.390625 1.710938 6.390625 3.351562 L 6.390625 18.59375 C 6.390625 20.238281 5.058594 21.570312 3.417969 21.570312 C 1.773438 21.570312 0.441406 20.238281 0.441406 18.59375 L 0.441406 3.351562 C 0.441406 1.710938 1.773438 0.378906 3.417969 0.378906 Z M 3.417969 0.378906 " clip-rule="nonzero"/></clipPath><clipPath id="2e06b64b83"><rect x="0" width="7" y="0" height="22"/></clipPath><clipPath id="9f096c6e48"><path d="M 46.441406 22.386719 L 52.410156 22.386719 L 52.410156 43.265625 L 46.441406 43.265625 Z M 46.441406 22.386719 " clip-rule="nonzero"/></clipPath><clipPath id="8577ee0926"><path d="M 49.414062 22.386719 C 51.054688 22.386719 52.386719 23.71875 52.386719 25.359375 L 52.386719 40.585938 C 52.386719 42.230469 51.054688 43.558594 49.414062 43.558594 C 47.773438 43.558594 46.441406 42.230469 46.441406 40.585938 L 46.441406 25.359375 C 46.441406 23.71875 47.773438 22.386719 49.414062 22.386719 Z M 49.414062 22.386719 " clip-rule="nonzero"/></clipPath><clipPath id="baa9b26fc8"><path d="M 46.441406 21.546875 L 58.304688 21.546875 L 58.304688 27 L 46.441406 27 Z M 46.441406 21.546875 " clip-rule="nonzero"/></clipPath><clipPath id="ec064782b8"><path d="M 48.679688 21.546875 L 56.054688 21.546875 C 57.292969 21.546875 58.292969 22.546875 58.292969 23.785156 L 58.292969 24.761719 C 58.292969 25.996094 57.292969 27 56.054688 27 L 48.679688 27 C 47.445312 27 46.441406 25.996094 46.441406 24.761719 L 46.441406 23.785156 C 46.441406 22.546875 47.445312 21.546875 48.679688 21.546875 Z M 48.679688 21.546875 " clip-rule="nonzero"/></clipPath><clipPath id="d66c841cfd"><path d="M 0.441406 0.546875 L 12.304688 0.546875 L 12.304688 6 L 0.441406 6 Z M 0.441406 0.546875 " clip-rule="nonzero"/></clipPath><clipPath id="9e32830190"><path d="M 2.679688 0.546875 L 10.054688 0.546875 C 11.292969 0.546875 12.292969 1.546875 12.292969 2.785156 L 12.292969 3.761719 C 12.292969 4.996094 11.292969 6 10.054688 6 L 2.679688 6 C 1.445312 6 0.441406 4.996094 0.441406 3.761719 L 0.441406 2.785156 C 0.441406 1.546875 1.445312 0.546875 2.679688 0.546875 Z M 2.679688 0.546875 " clip-rule="nonzero"/></clipPath><clipPath id="7280755111"><rect x="0" width="13" y="0" height="6"/></clipPath><clipPath id="02ca0e954d"><path d="M 46.449219 21.546875 L 58.375 21.546875 L 58.375 26.769531 L 46.449219 26.769531 Z M 46.449219 21.546875 " clip-rule="nonzero"/></clipPath><clipPath id="4c90174b3b"><path d="M 48.683594 21.546875 L 56.042969 21.546875 C 57.277344 21.546875 58.277344 22.546875 58.277344 23.78125 L 58.277344 24.753906 C 58.277344 25.988281 57.277344 26.988281 56.042969 26.988281 L 48.683594 26.988281 C 47.449219 26.988281 46.449219 25.988281 46.449219 24.753906 L 46.449219 23.78125 C 46.449219 22.546875 47.449219 21.546875 48.683594 21.546875 Z M 48.683594 21.546875 " clip-rule="nonzero"/></clipPath><clipPath id="092e8f863d"><path d="M 47.203125 28.648438 L 56.238281 28.648438 L 56.238281 34.128906 L 47.203125 34.128906 Z M 47.203125 28.648438 " clip-rule="nonzero"/></clipPath><clipPath id="d4e4db86df"><path d="M 49.441406 28.648438 L 53.980469 28.648438 C 55.21875 28.648438 56.21875 29.652344 56.21875 30.886719 L 56.21875 31.890625 C 56.21875 33.128906 55.21875 34.128906 53.980469 34.128906 L 49.441406 34.128906 C 48.207031 34.128906 47.203125 33.128906 47.203125 31.890625 L 47.203125 30.886719 C 47.203125 29.652344 48.207031 28.648438 49.441406 28.648438 Z M 49.441406 28.648438 " clip-rule="nonzero"/></clipPath><clipPath id="a0cf650d47"><path d="M 0.203125 0.648438 L 9.238281 0.648438 L 9.238281 6.128906 L 0.203125 6.128906 Z M 0.203125 0.648438 " clip-rule="nonzero"/></clipPath><clipPath id="693ca3b23d"><path d="M 2.441406 0.648438 L 6.980469 0.648438 C 8.21875 0.648438 9.21875 1.652344 9.21875 2.886719 L 9.21875 3.890625 C 9.21875 5.128906 8.21875 6.128906 6.980469 6.128906 L 2.441406 6.128906 C 1.207031 6.128906 0.203125 5.128906 0.203125 3.890625 L 0.203125 2.886719 C 0.203125 1.652344 1.207031 0.648438 2.441406 0.648438 Z M 2.441406 0.648438 " clip-rule="nonzero"/></clipPath><clipPath id="a490e3e998"><rect x="0" width="10" y="0" height="7"/></clipPath><clipPath id="c22e4d4ed6"><path d="M 47.203125 28.648438 L 56.15625 28.648438 L 56.15625 33.871094 L 47.203125 33.871094 Z M 47.203125 28.648438 " clip-rule="nonzero"/></clipPath><clipPath id="c3911d2a32"><path d="M 49.441406 28.648438 L 53.976562 28.648438 C 55.210938 28.648438 56.214844 29.652344 56.214844 30.886719 L 56.214844 31.890625 C 56.214844 33.125 55.210938 34.125 53.976562 34.125 L 49.441406 34.125 C 48.207031 34.125 47.203125 33.125 47.203125 31.890625 L 47.203125 30.886719 C 47.203125 29.652344 48.207031 28.648438 49.441406 28.648438 Z M 49.441406 28.648438 " clip-rule="nonzero"/></clipPath><clipPath id="cba6c35b90"><path d="M 35.714844 18.402344 L 42 18.402344 L 42 24.6875 L 35.714844 24.6875 Z M 35.714844 18.402344 " clip-rule="nonzero"/></clipPath><clipPath id="cefbc48bc1"><path d="M 38.855469 18.402344 C 37.121094 18.402344 35.714844 19.8125 35.714844 21.546875 C 35.714844 23.28125 37.121094 24.6875 38.855469 24.6875 C 40.589844 24.6875 42 23.28125 42 21.546875 C 42 19.8125 40.589844 18.402344 38.855469 18.402344 Z M 38.855469 18.402344 " clip-rule="nonzero"/></clipPath><clipPath id="93302faa62"><path d="M 0.714844 0.402344 L 7 0.402344 L 7 6.6875 L 0.714844 6.6875 Z M 0.714844 0.402344 " clip-rule="nonzero"/></clipPath><clipPath id="bafadf6c0b"><path d="M 3.855469 0.402344 C 2.121094 0.402344 0.714844 1.8125 0.714844 3.546875 C 0.714844 5.28125 2.121094 6.6875 3.855469 6.6875 C 5.589844 6.6875 7 5.28125 7 3.546875 C 7 1.8125 5.589844 0.402344 3.855469 0.402344 Z M 3.855469 0.402344 " clip-rule="nonzero"/></clipPath><clipPath id="e40ce6e2a3"><rect x="0" width="7" y="0" height="7"/></clipPath><clipPath id="9576eb3326"><path d="M 35.714844 18.402344 L 41.679688 18.402344 L 41.679688 24.371094 L 35.714844 24.371094 Z M 35.714844 18.402344 " clip-rule="nonzero"/></clipPath><clipPath id="d618296500"><path d="M 38.855469 18.402344 C 37.121094 18.402344 35.714844 19.808594 35.714844 21.542969 C 35.714844 23.28125 37.121094 24.6875 38.855469 24.6875 C 40.589844 24.6875 41.996094 23.28125 41.996094 21.542969 C 41.996094 19.808594 40.589844 18.402344 38.855469 18.402344 Z M 38.855469 18.402344 " clip-rule="nonzero"/></clipPath><clipPath id="1f21787f5e"><path d="M 5.398438 6.019531 L 85.210938 6.019531 L 85.210938 49.234375 L 5.398438 49.234375 Z M 5.398438 6.019531 " clip-rule="nonzero"/></clipPath><clipPath id="c4c2d06f37"><path d="M 32.035156 8.613281 C 36.117188 7.046875 40.785156 6.019531 45.355469 6.019531 C 49.921875 6.019531 54.320312 6.902344 58.371094 8.46875 C 58.457031 8.515625 58.542969 8.515625 58.628906 8.566406 C 73.84375 14.835938 85.050781 31.386719 85.265625 49.234375 L 5.398438 49.234375 C 5.617188 31.289062 16.648438 14.738281 32.035156 8.613281 Z M 32.035156 8.613281 " clip-rule="nonzero"/></clipPath></defs><g clip-path="url(#61fb578a3c)"><g clip-path="url(#4c99c982b2)"><path stroke-linecap="butt" transform="matrix(0.745924, 0, 0, 0.745924, 0.0480499, 46.536283)" fill="none" stroke-linejoin="miter" d="M 6.219736 -0.00151012 L 115.19742 -0.00151012 C 116.847011 -0.00151012 118.428522 0.653089 119.596327 1.820894 C 120.764133 2.988699 121.418732 4.570211 121.418732 6.219801 C 121.418732 7.869391 120.764133 9.450903 119.596327 10.613471 C 118.428522 11.781277 116.847011 12.435876 115.19742 12.435876 L 6.219736 12.435876 C 4.570146 12.435876 2.988634 11.781277 1.820829 10.613471 C 0.653024 9.450903 -0.00157511 7.869391 -0.00157511 6.219801 C -0.00157511 4.570211 0.653024 2.988699 1.820829 1.820894 C 2.988634 0.653089 4.570146 -0.00151012 6.219736 -0.00151012 Z M 6.219736 -0.00151012 " stroke="#7ed957" stroke-width="10" stroke-opacity="1" stroke-miterlimit="4"/></g></g><g clip-path="url(#ddc8948987)"><g clip-path="url(#fb979c7424)"><g transform="matrix(1, 0, 0, 1, 41, 0.000000000000005496)"><g clip-path="url(#bc0d7fc4ee)"><g clip-path="url(#a4cf26018c)"><g clip-path="url(#38f9a086ed)"><path fill="#7ed957" d="M 0.75 0.210938 L 7.925781 0.210938 L 7.925781 7.386719 L 0.75 7.386719 Z M 0.75 0.210938 " fill-opacity="1" fill-rule="nonzero"/></g></g></g></g></g></g><g clip-path="url(#fc1ff32437)"><g clip-path="url(#0ea4309096)"><g transform="matrix(1, 0, 0, 1, 35, 24)"><g clip-path="url(#7ccbeee34f)"><g clip-path="url(#0573aa714b)"><g clip-path="url(#ed4ef91bce)"><path fill="#00bf63" d="M 0.714844 0.6875 L 7 0.6875 L 7 19.570312 L 0.714844 19.570312 Z M 0.714844 0.6875 " fill-opacity="1" fill-rule="nonzero"/></g></g></g></g></g></g><g clip-path="url(#3d2df14d2f)"><g clip-path="url(#2ceb627228)"><path stroke-linecap="butt" transform="matrix(0.745924, 0, 0, 0.745924, 35.713433, 24.689048)" fill="none" stroke-linejoin="miter" d="M 4.212274 -0.00207522 C 6.537411 -0.00207522 8.422657 1.883171 8.422657 4.208308 L 8.422657 21.086497 C 8.422657 23.411634 6.537411 25.29688 4.212274 25.29688 C 1.887137 25.29688 0.0018911 23.411634 0.0018911 21.086497 L 0.0018911 4.208308 C 0.0018911 1.883171 1.887137 -0.00207522 4.212274 -0.00207522 Z M 4.212274 -0.00207522 " stroke="#00bf63" stroke-width="4" stroke-opacity="1" stroke-miterlimit="4"/></g></g><g clip-path="url(#550456f1d2)"><g clip-path="url(#26a685b7fb)"><g transform="matrix(1, 0, 0, 1, 46, 22)"><g clip-path="url(#2e06b64b83)"><g clip-path="url(#d82bb48fe5)"><g clip-path="url(#62aff93d47)"><path fill="#00bf63" d="M 0.441406 0.378906 L 6.390625 0.378906 L 6.390625 21.574219 L 0.441406 21.574219 Z M 0.441406 0.378906 " fill-opacity="1" fill-rule="nonzero"/></g></g></g></g></g></g><g clip-path="url(#9f096c6e48)"><g clip-path="url(#8577ee0926)"><path stroke-linecap="butt" transform="matrix(0.745924, 0, 0, 0.745924, 46.441982, 22.386773)" fill="none" stroke-linejoin="miter" d="M 3.984428 -0.000072556 C 6.183882 -0.000072556 7.969629 1.785674 7.969629 3.985128 L 7.969629 24.398153 C 7.969629 26.602843 6.183882 28.383353 3.984428 28.383353 C 1.784975 28.383353 -0.000772304 26.602843 -0.000772304 24.398153 L -0.000772304 3.985128 C -0.000772304 1.785674 1.784975 -0.000072556 3.984428 -0.000072556 Z M 3.984428 -0.000072556 " stroke="#00bf63" stroke-width="4" stroke-opacity="1" stroke-miterlimit="4"/></g></g><g clip-path="url(#baa9b26fc8)"><g clip-path="url(#ec064782b8)"><g transform="matrix(1, 0, 0, 1, 46, 21)"><g clip-path="url(#7280755111)"><g clip-path="url(#d66c841cfd)"><g clip-path="url(#9e32830190)"><path fill="#00bf63" d="M 0.441406 0.546875 L 12.285156 0.546875 L 12.285156 6 L 0.441406 6 Z M 0.441406 0.546875 " fill-opacity="1" fill-rule="nonzero"/></g></g></g></g></g></g><g clip-path="url(#02ca0e954d)"><g clip-path="url(#4c90174b3b)"><path stroke-linecap="butt" transform="matrix(0.745924, 0, 0, 0.745924, 46.448174, 21.54633)" fill="none" stroke-linejoin="miter" d="M 2.996847 0.00073057 L 12.862968 0.00073057 C 14.517795 0.00073057 15.858414 1.34135 15.858414 2.996177 L 15.858414 4.300139 C 15.858414 5.954966 14.517795 7.295585 12.862968 7.295585 L 2.996847 7.295585 C 1.34202 7.295585 0.00140048 5.954966 0.00140048 4.300139 L 0.00140048 2.996177 C 0.00140048 1.34135 1.34202 0.00073057 2.996847 0.00073057 Z M 2.996847 0.00073057 " stroke="#00bf63" stroke-width="4" stroke-opacity="1" stroke-miterlimit="4"/></g></g><g clip-path="url(#092e8f863d)"><g clip-path="url(#d4e4db86df)"><g transform="matrix(1, 0, 0, 1, 47, 28)"><g clip-path="url(#a490e3e998)"><g clip-path="url(#a0cf650d47)"><g clip-path="url(#693ca3b23d)"><path fill="#00bf63" d="M 0.203125 0.648438 L 9.214844 0.648438 L 9.214844 6.128906 L 0.203125 6.128906 Z M 0.203125 0.648438 " fill-opacity="1" fill-rule="nonzero"/></g></g></g></g></g></g><g clip-path="url(#c22e4d4ed6)"><g clip-path="url(#c3911d2a32)"><path stroke-linecap="butt" transform="matrix(0.745924, 0, 0, 0.745924, 47.204663, 28.650237)" fill="none" stroke-linejoin="miter" d="M 2.998622 -0.00241243 L 9.07854 -0.00241243 C 10.733367 -0.00241243 12.079223 1.343444 12.079223 2.998271 L 12.079223 4.344127 C 12.079223 5.998954 10.733367 7.339573 9.07854 7.339573 L 2.998622 7.339573 C 1.343795 7.339573 -0.0020614 5.998954 -0.0020614 4.344127 L -0.0020614 2.998271 C -0.0020614 1.343444 1.343795 -0.00241243 2.998622 -0.00241243 Z M 2.998622 -0.00241243 " stroke="#00bf63" stroke-width="6" stroke-opacity="1" stroke-miterlimit="4"/></g></g><g clip-path="url(#cba6c35b90)"><g clip-path="url(#cefbc48bc1)"><g transform="matrix(1, 0, 0, 1, 35, 18)"><g clip-path="url(#e40ce6e2a3)"><g clip-path="url(#93302faa62)"><g clip-path="url(#bafadf6c0b)"><path fill="#ff3131" d="M 0.714844 0.402344 L 7 0.402344 L 7 6.6875 L 0.714844 6.6875 Z M 0.714844 0.402344 " fill-opacity="1" fill-rule="nonzero"/></g></g></g></g></g></g><g clip-path="url(#9576eb3326)"><g clip-path="url(#d618296500)"><path stroke-linecap="butt" transform="matrix(0.745924, 0, 0, 0.745924, 35.713247, 18.403612)" fill="none" stroke-linejoin="miter" d="M 4.212523 -0.00170043 C 1.887386 -0.00170043 0.00214006 1.883546 0.00214006 4.208682 C 0.00214006 6.539056 1.887386 8.424302 4.212523 8.424302 C 6.537659 8.424302 8.422905 6.539056 8.422905 4.208682 C 8.422905 1.883546 6.537659 -0.00170043 4.212523 -0.00170043 Z M 4.212523 -0.00170043 " stroke="#ff3131" stroke-width="4" stroke-opacity="1" stroke-miterlimit="4"/></g></g><g fill="#00bf63" fill-opacity="1"><g transform="translate(13.820261, 68.285251)"><g><path d="M 7.15625 -4.765625 L 9.5 -10.71875 C 9.601562 -10.976562 9.765625 -11.179688 9.984375 -11.328125 C 10.210938 -11.484375 10.460938 -11.5625 10.734375 -11.5625 L 12.296875 -11.5625 C 12.535156 -11.5625 12.742188 -11.472656 12.921875 -11.296875 C 13.109375 -11.117188 13.203125 -10.90625 13.203125 -10.65625 L 13.203125 -0.90625 C 13.203125 -0.65625 13.109375 -0.441406 12.921875 -0.265625 C 12.742188 -0.0859375 12.535156 0 12.296875 0 L 11.0625 0 C 10.8125 0 10.597656 -0.0859375 10.421875 -0.265625 C 10.242188 -0.441406 10.15625 -0.65625 10.15625 -0.90625 L 10.15625 -6.328125 C 10.15625 -6.335938 10.148438 -6.34375 10.140625 -6.34375 C 10.128906 -6.34375 10.125 -6.335938 10.125 -6.328125 L 8.90625 -3.21875 C 8.8125 -2.96875 8.648438 -2.765625 8.421875 -2.609375 C 8.191406 -2.453125 7.941406 -2.375 7.671875 -2.375 L 6.625 -2.375 C 6.34375 -2.375 6.085938 -2.453125 5.859375 -2.609375 C 5.640625 -2.765625 5.484375 -2.96875 5.390625 -3.21875 L 4.171875 -6.328125 C 4.171875 -6.335938 4.164062 -6.34375 4.15625 -6.34375 C 4.144531 -6.34375 4.140625 -6.335938 4.140625 -6.328125 L 4.140625 -0.90625 C 4.140625 -0.65625 4.046875 -0.441406 3.859375 -0.265625 C 3.679688 -0.0859375 3.472656 0 3.234375 0 L 2.0625 0 C 1.8125 0 1.597656 -0.0859375 1.421875 -0.265625 C 1.242188 -0.441406 1.15625 -0.65625 1.15625 -0.90625 L 1.15625 -10.65625 C 1.15625 -10.90625 1.242188 -11.117188 1.421875 -11.296875 C 1.597656 -11.472656 1.8125 -11.5625 2.0625 -11.5625 L 3.546875 -11.5625 C 3.828125 -11.5625 4.078125 -11.484375 4.296875 -11.328125 C 4.523438 -11.179688 4.6875 -10.976562 4.78125 -10.71875 L 7.125 -4.765625 C 7.125 -4.753906 7.128906 -4.75 7.140625 -4.75 C 7.148438 -4.75 7.15625 -4.753906 7.15625 -4.765625 Z M 7.15625 -4.765625 "/></g></g></g><g fill="#00bf63" fill-opacity="1"><g transform="translate(33.95686, 68.285251)"><g><path d="M 1.15625 -0.90625 L 1.15625 -10.65625 C 1.15625 -10.90625 1.242188 -11.117188 1.421875 -11.296875 C 1.597656 -11.472656 1.8125 -11.5625 2.0625 -11.5625 L 7.859375 -11.5625 C 8.097656 -11.5625 8.304688 -11.472656 8.484375 -11.296875 C 8.671875 -11.117188 8.765625 -10.90625 8.765625 -10.65625 L 8.765625 -9.9375 C 8.765625 -9.6875 8.671875 -9.472656 8.484375 -9.296875 C 8.304688 -9.117188 8.097656 -9.03125 7.859375 -9.03125 L 4.46875 -9.03125 C 4.375 -9.03125 4.328125 -8.988281 4.328125 -8.90625 L 4.328125 -7.265625 C 4.328125 -7.171875 4.375 -7.125 4.46875 -7.125 L 7.546875 -7.125 C 7.785156 -7.125 7.992188 -7.035156 8.171875 -6.859375 C 8.347656 -6.679688 8.4375 -6.472656 8.4375 -6.234375 L 8.4375 -5.65625 C 8.4375 -5.414062 8.347656 -5.203125 8.171875 -5.015625 C 7.992188 -4.835938 7.785156 -4.75 7.546875 -4.75 L 4.46875 -4.75 C 4.375 -4.75 4.328125 -4.707031 4.328125 -4.625 L 4.328125 -2.671875 C 4.328125 -2.578125 4.375 -2.53125 4.46875 -2.53125 L 7.859375 -2.53125 C 8.097656 -2.53125 8.304688 -2.441406 8.484375 -2.265625 C 8.671875 -2.085938 8.765625 -1.875 8.765625 -1.625 L 8.765625 -0.90625 C 8.765625 -0.65625 8.671875 -0.441406 8.484375 -0.265625 C 8.304688 -0.0859375 8.097656 0 7.859375 0 L 2.0625 0 C 1.8125 0 1.597656 -0.0859375 1.421875 -0.265625 C 1.242188 -0.441406 1.15625 -0.65625 1.15625 -0.90625 Z M 1.15625 -0.90625 "/></g></g></g><g fill="#00bf63" fill-opacity="1"><g transform="translate(49.503459, 68.285251)"><g><path d="M 7.734375 -5.25 L 7.734375 -10.65625 C 7.734375 -10.90625 7.820312 -11.117188 8 -11.296875 C 8.175781 -11.472656 8.390625 -11.5625 8.640625 -11.5625 L 9.921875 -11.5625 C 10.160156 -11.5625 10.367188 -11.472656 10.546875 -11.296875 C 10.734375 -11.117188 10.828125 -10.90625 10.828125 -10.65625 L 10.828125 -0.90625 C 10.828125 -0.65625 10.734375 -0.441406 10.546875 -0.265625 C 10.367188 -0.0859375 10.160156 0 9.921875 0 L 8.640625 0 C 8.035156 0 7.585938 -0.265625 7.296875 -0.796875 L 4.28125 -6.328125 C 4.28125 -6.335938 4.273438 -6.34375 4.265625 -6.34375 C 4.253906 -6.34375 4.25 -6.335938 4.25 -6.328125 L 4.25 -0.90625 C 4.25 -0.65625 4.15625 -0.441406 3.96875 -0.265625 C 3.789062 -0.0859375 3.582031 0 3.34375 0 L 2.0625 0 C 1.8125 0 1.597656 -0.0859375 1.421875 -0.265625 C 1.242188 -0.441406 1.15625 -0.65625 1.15625 -0.90625 L 1.15625 -10.65625 C 1.15625 -10.90625 1.242188 -11.117188 1.421875 -11.296875 C 1.597656 -11.472656 1.8125 -11.5625 2.0625 -11.5625 L 3.34375 -11.5625 C 3.945312 -11.5625 4.390625 -11.300781 4.671875 -10.78125 L 7.703125 -5.25 C 7.703125 -5.238281 7.707031 -5.234375 7.71875 -5.234375 C 7.726562 -5.234375 7.734375 -5.238281 7.734375 -5.25 Z M 7.734375 -5.25 "/></g></g></g><g fill="#00bf63" fill-opacity="1"><g transform="translate(67.265919, 68.285251)"><g><path d="M 7.375 -4.515625 L 7.375 -10.65625 C 7.375 -10.90625 7.460938 -11.117188 7.640625 -11.296875 C 7.816406 -11.472656 8.023438 -11.5625 8.265625 -11.5625 L 9.59375 -11.5625 C 9.84375 -11.5625 10.054688 -11.472656 10.234375 -11.296875 C 10.410156 -11.117188 10.5 -10.90625 10.5 -10.65625 L 10.5 -4.75 C 10.5 -3.132812 10.085938 -1.910156 9.265625 -1.078125 C 8.453125 -0.253906 7.28125 0.15625 5.75 0.15625 C 4.21875 0.15625 3.039062 -0.253906 2.21875 -1.078125 C 1.40625 -1.910156 1 -3.132812 1 -4.75 L 1 -10.65625 C 1 -10.90625 1.085938 -11.117188 1.265625 -11.296875 C 1.441406 -11.472656 1.65625 -11.5625 1.90625 -11.5625 L 3.296875 -11.5625 C 3.535156 -11.5625 3.742188 -11.472656 3.921875 -11.296875 C 4.109375 -11.117188 4.203125 -10.90625 4.203125 -10.65625 L 4.203125 -4.515625 C 4.203125 -3.765625 4.332031 -3.21875 4.59375 -2.875 C 4.851562 -2.539062 5.25 -2.375 5.78125 -2.375 C 6.3125 -2.375 6.707031 -2.539062 6.96875 -2.875 C 7.238281 -3.21875 7.375 -3.765625 7.375 -4.515625 Z M 7.375 -4.515625 "/></g></g></g><g clip-path="url(#1f21787f5e)"><g clip-path="url(#c4c2d06f37)"><path stroke-linecap="butt" transform="matrix(0.745924, 0, 0, 0.745924, 5.400304, 6.019175)" fill="none" stroke-linejoin="miter" d="M 35.707197 3.477708 C 41.179647 1.377754 47.437616 0.000477032 53.564665 0.000477032 C 59.686477 0.000477032 65.583107 1.183992 71.013662 3.283947 C 71.128872 3.346788 71.244081 3.346788 71.359291 3.414867 C 91.756604 11.819921 106.780966 34.008218 107.068989 57.93513 L -0.00250183 57.93513 C 0.290759 33.877298 15.079465 11.689001 35.707197 3.477708 Z M 35.707197 3.477708 " stroke="#7ed957" stroke-width="8" stroke-opacity="1" stroke-miterlimit="4"/></g></g></svg>